<?xml version="1.0" encoding="UTF-8" standalone="no"?>
<!-- Created with Inkscape (http://www.inkscape.org/) -->

<svg
   xmlns:dc="http://purl.org/dc/elements/1.1/"
   xmlns:cc="http://creativecommons.org/ns#"
   xmlns:rdf="http://www.w3.org/1999/02/22-rdf-syntax-ns#"
   xmlns:svg="http://www.w3.org/2000/svg"
   xmlns="http://www.w3.org/2000/svg"
   xmlns:xlink="http://www.w3.org/1999/xlink"
   xmlns:sodipodi="http://sodipodi.sourceforge.net/DTD/sodipodi-0.dtd"
   xmlns:inkscape="http://www.inkscape.org/namespaces/inkscape"
   width="46.501007"
   height="45.839222"
   id="svg3146"
   version="1.1"
   inkscape:version="0.47 r22583"
   sodipodi:docname="button_upload_active.svg">
  <defs
     id="defs3148">
    <inkscape:perspective
       sodipodi:type="inkscape:persp3d"
       inkscape:vp_x="0 : 526.18109 : 1"
       inkscape:vp_y="0 : 1000 : 0"
       inkscape:vp_z="744.09448 : 526.18109 : 1"
       inkscape:persp3d-origin="372.04724 : 350.78739 : 1"
       id="perspective3154" />
    <inkscape:perspective
       id="perspective3127"
       inkscape:persp3d-origin="0.5 : 0.33333333 : 1"
       inkscape:vp_z="1 : 0.5 : 1"
       inkscape:vp_y="0 : 1000 : 0"
       inkscape:vp_x="0 : 0.5 : 1"
       sodipodi:type="inkscape:persp3d" />
    <linearGradient
       inkscape:collect="always"
       xlink:href="#linearGradient3611"
       id="linearGradient6156"
       gradientUnits="userSpaceOnUse"
       gradientTransform="matrix(0,0.64022947,-0.64022947,0,-32.931244,990.8247)"
       x1="23.998358"
       y1="-67.392754"
       x2="59.22863"
       y2="-76.212364" />
    <linearGradient
       id="linearGradient3611">
      <stop
         style="stop-color:#ffffff;stop-opacity:1;"
         offset="0"
         id="stop3613" />
      <stop
         style="stop-color:#ffffff;stop-opacity:0;"
         offset="1"
         id="stop3615" />
    </linearGradient>
    <linearGradient
       inkscape:collect="always"
       xlink:href="#linearGradient3600"
       id="linearGradient6154"
       gradientUnits="userSpaceOnUse"
       gradientTransform="matrix(0.62736838,0,0,0.65273168,971.03222,-80.15139)"
       x1="50.06683"
       y1="84.999985"
       x2="121.42857"
       y2="85" />
    <linearGradient
       id="linearGradient3600">
      <stop
         style="stop-color:#000000;stop-opacity:0.44303799;"
         offset="0"
         id="stop3602" />
      <stop
         style="stop-color:#000000;stop-opacity:0;"
         offset="1"
         id="stop3604" />
    </linearGradient>
    <filter
       color-interpolation-filters="sRGB"
       inkscape:collect="always"
       id="filter3803">
      <feGaussianBlur
         inkscape:collect="always"
         stdDeviation="2.0840957"
         id="feGaussianBlur3805" />
    </filter>
    <inkscape:perspective
       id="perspective2846"
       inkscape:persp3d-origin="0.5 : 0.33333333 : 1"
       inkscape:vp_z="1 : 0.5 : 1"
       inkscape:vp_y="0 : 1000 : 0"
       inkscape:vp_x="0 : 0.5 : 1"
       sodipodi:type="inkscape:persp3d" />
    <inkscape:perspective
       id="perspective4135"
       inkscape:persp3d-origin="0.5 : 0.33333333 : 1"
       inkscape:vp_z="1 : 0.5 : 1"
       inkscape:vp_y="0 : 1000 : 0"
       inkscape:vp_x="0 : 0.5 : 1"
       sodipodi:type="inkscape:persp3d" />
    <linearGradient
       inkscape:collect="always"
       xlink:href="#linearGradient3611-4"
       id="linearGradient3126"
       gradientUnits="userSpaceOnUse"
       gradientTransform="matrix(0,0.64022935,-0.64022935,0,-32.881638,991.52089)"
       x1="23.998358"
       y1="-67.392754"
       x2="59.22863"
       y2="-76.212364" />
    <linearGradient
       id="linearGradient3611-4">
      <stop
         style="stop-color:#ffffff;stop-opacity:1;"
         offset="0"
         id="stop3613-8" />
      <stop
         style="stop-color:#ffffff;stop-opacity:0;"
         offset="1"
         id="stop3615-4" />
    </linearGradient>
    <linearGradient
       inkscape:collect="always"
       xlink:href="#linearGradient3600-8"
       id="linearGradient3124"
       gradientUnits="userSpaceOnUse"
       gradientTransform="matrix(0.62736825,0,0,0.65273156,971.72839,-80.200979)"
       x1="50.06683"
       y1="84.999985"
       x2="121.42857"
       y2="85" />
    <linearGradient
       id="linearGradient3600-8">
      <stop
         style="stop-color:#000000;stop-opacity:0.44303799;"
         offset="0"
         id="stop3602-3" />
      <stop
         style="stop-color:#000000;stop-opacity:0;"
         offset="1"
         id="stop3604-5" />
    </linearGradient>
    <filter
       color-interpolation-filters="sRGB"
       inkscape:collect="always"
       id="filter3803-0">
      <feGaussianBlur
         inkscape:collect="always"
         stdDeviation="2.0840957"
         id="feGaussianBlur3805-3" />
    </filter>
  </defs>
  <sodipodi:namedview
     id="base"
     pagecolor="#ffffff"
     bordercolor="#666666"
     borderopacity="1.0"
     inkscape:pageopacity="0.0"
     inkscape:pageshadow="2"
     inkscape:zoom="3.959798"
     inkscape:cx="112.59802"
     inkscape:cy="2.8159036"
     inkscape:document-units="px"
     inkscape:current-layer="layer1"
     showgrid="false"
     inkscape:window-width="1920"
     inkscape:window-height="1125"
     inkscape:window-x="0"
     inkscape:window-y="24"
     inkscape:window-maximized="1" />
  <metadata
     id="metadata3151">
    <rdf:RDF>
      <cc:Work
         rdf:about="">
        <dc:format>image/svg+xml</dc:format>
        <dc:type
           rdf:resource="http://purl.org/dc/dcmitype/StillImage" />
        <dc:title></dc:title>
      </cc:Work>
    </rdf:RDF>
  </metadata>
  <g
     inkscape:label="Ebene 1"
     inkscape:groupmode="layer"
     id="layer1"
     transform="translate(-1.4186979,-1004.6443)">
    <rect
       style="fill:#000000;fill-opacity:1;stroke:none;filter:url(#filter3803-0)"
       id="rect3104"
       width="61.594452"
       height="62.628124"
       x="32.48016"
       y="-121.2825"
       transform="matrix(0,0.64022935,-0.64022935,0,-32.881638,987.74809)"
       rx="15.678588"
       ry="16.312443" />
    <rect
       style="fill:#0000e7;fill-opacity:1;stroke:none"
       id="rect3106"
       width="40.242989"
       height="39.328373"
       x="4.6174946"
       y="1008.5816"
       rx="10.24367"
       ry="10.24367" />
    <path
       id="path3900"
       d="m 14.203581,1024.6576 c -1.296912,0 -2.347401,1.0505 -2.347401,2.3474 l 0,5.2545 -0.621854,0 0,9.6072 9.296386,0 0,-9.6072 -0.699579,0 0,-5.2545 c 0,-1.2969 -1.03493,-2.3474 -2.331843,-2.3474 l -3.295709,0 z m 0.497458,1.197 2.238626,0 c 0.878395,0 1.585656,0.7073 1.585656,1.5857 l 0,4.8192 -5.409938,0 0,-4.8192 c 0,-0.8784 0.707262,-1.5857 1.585656,-1.5857 z m 1.103756,8.3792 c 0.75451,0 1.352484,0.625 1.352484,1.3991 0,0.4111 -0.160505,0.7852 -0.435292,1.0416 l 0,2.907 c 0,0.3112 -0.26403,0.5597 -0.575182,0.5597 l -0.715136,0 c -0.311151,0 -0.559624,-0.2485 -0.559624,-0.5597 l 0,-2.907 c -0.274787,-0.2564 -0.435292,-0.6305 -0.435292,-1.0416 0,-0.7741 0.613532,-1.3991 1.368042,-1.3991 z"
       style="opacity:0.45;fill:#ffffff;fill-opacity:1;stroke:none" />
    <path
       id="path3902"
       d="m 27.63937,1013.2447 c -0.327477,-0.1106 -8.003059,7.9756 -7.912914,8.3362 0.09046,0.3605 10.69407,3.9314 10.931467,3.6814 0.08624,-0.091 -0.26275,-1.6932 -0.733511,-3.6955 2.656504,0.8616 4.839427,3.0091 5.571597,5.91 1.13353,4.4914 -1.6016,9.0468 -6.107597,10.184 -0.572749,0.1445 -1.153117,0.2295 -1.720808,0.2539 l 0,4.4149 c 0.944914,-0.024 1.90814,-0.1539 2.863426,-0.395 6.926959,-1.7482 11.122449,-8.7661 9.379869,-15.6708 -1.36401,-5.4045 -5.96956,-9.12 -11.227699,-9.6479 -0.497202,-1.862 -0.930061,-3.3328 -1.04383,-3.3712 z"
       style="opacity:0.45;fill:#ffffff;fill-opacity:1;stroke:none" />
    <rect
       ry="10.443705"
       rx="10.037892"
       transform="matrix(0,1,-1,0,0,0)"
       y="-44.766964"
       x="1008.4743"
       height="40.096363"
       width="39.434578"
       id="rect3116"
       style="opacity:0.42816904;fill:url(#linearGradient3124);fill-opacity:1;stroke:none" />
    <path
       style="fill:url(#linearGradient3126);fill-opacity:1;stroke:none"
       d="m 44.766979,1017.8387 c -0.53453,8.5181 1.84501,4.5873 -6.21362,4.5753 -8.117275,-0.012 -17.871425,8.5607 -25.382596,6.8596 -10.0483992,-2.2757 -8.5982802,-3.1284 -8.6144782,-9.4215 0,-0.8249 0.114345,-2.6994 0.114345,-2.6994 0.457252,-3.4931 3.914747,-8.6212 9.7005632,-8.6212 l 19.952046,-0.057 c 5.78581,0 10.15794,4.3279 10.44374,9.3644 z"
       id="path3118"
       sodipodi:nodetypes="cssscccc" />
  </g>
</svg>
