<?xml version="1.0" encoding="UTF-8" standalone="no"?>
<!-- Created with Inkscape (http://www.inkscape.org/) -->

<svg
   xmlns:dc="http://purl.org/dc/elements/1.1/"
   xmlns:cc="http://creativecommons.org/ns#"
   xmlns:rdf="http://www.w3.org/1999/02/22-rdf-syntax-ns#"
   xmlns:svg="http://www.w3.org/2000/svg"
   xmlns="http://www.w3.org/2000/svg"
   xmlns:xlink="http://www.w3.org/1999/xlink"
   xmlns:sodipodi="http://sodipodi.sourceforge.net/DTD/sodipodi-0.dtd"
   xmlns:inkscape="http://www.inkscape.org/namespaces/inkscape"
   width="30"
   height="30"
   id="svg5259"
   version="1.1"
   inkscape:version="0.47 r22583"
   sodipodi:docname="button_increase_inactive.svg">
  <defs
     id="defs5261">
    <inkscape:perspective
       sodipodi:type="inkscape:persp3d"
       inkscape:vp_x="0 : 526.18109 : 1"
       inkscape:vp_y="0 : 1000 : 0"
       inkscape:vp_z="744.09448 : 526.18109 : 1"
       inkscape:persp3d-origin="372.04724 : 350.78739 : 1"
       id="perspective5267" />
    <inkscape:perspective
       id="perspective5240"
       inkscape:persp3d-origin="0.5 : 0.33333333 : 1"
       inkscape:vp_z="1 : 0.5 : 1"
       inkscape:vp_y="0 : 1000 : 0"
       inkscape:vp_x="0 : 0.5 : 1"
       sodipodi:type="inkscape:persp3d" />
    <linearGradient
       inkscape:collect="always"
       xlink:href="#linearGradient3611"
       id="linearGradient3856"
       gradientUnits="userSpaceOnUse"
       gradientTransform="matrix(0,0.4013345,-0.4013345,0,-21.281154,1014.4522)"
       x1="23.998358"
       y1="-67.392754"
       x2="59.22863"
       y2="-76.212364" />
    <linearGradient
       id="linearGradient3611">
      <stop
         style="stop-color:#ffffff;stop-opacity:1;"
         offset="0"
         id="stop3613" />
      <stop
         style="stop-color:#ffffff;stop-opacity:0;"
         offset="1"
         id="stop3615" />
    </linearGradient>
    <linearGradient
       inkscape:collect="always"
       xlink:href="#linearGradient3600"
       id="linearGradient3854"
       gradientUnits="userSpaceOnUse"
       gradientTransform="matrix(0.39327238,0,0,0.40917165,1002.045,-49.605868)"
       x1="50.06683"
       y1="84.999985"
       x2="121.42857"
       y2="85" />
    <linearGradient
       id="linearGradient3600">
      <stop
         style="stop-color:#000000;stop-opacity:0.44303799;"
         offset="0"
         id="stop3602" />
      <stop
         style="stop-color:#000000;stop-opacity:0;"
         offset="1"
         id="stop3604" />
    </linearGradient>
    <filter
       color-interpolation-filters="sRGB"
       inkscape:collect="always"
       id="filter3803">
      <feGaussianBlur
         inkscape:collect="always"
         stdDeviation="2.0840957"
         id="feGaussianBlur3805" />
    </filter>
  </defs>
  <sodipodi:namedview
     id="base"
     pagecolor="#ffffff"
     bordercolor="#666666"
     borderopacity="1.0"
     inkscape:pageopacity="0.0"
     inkscape:pageshadow="2"
     inkscape:zoom="11.2"
     inkscape:cx="41.410714"
     inkscape:cy="1.8635335"
     inkscape:document-units="px"
     inkscape:current-layer="layer1"
     showgrid="false"
     inkscape:window-width="1920"
     inkscape:window-height="1125"
     inkscape:window-x="0"
     inkscape:window-y="24"
     inkscape:window-maximized="1" />
  <metadata
     id="metadata5264">
    <rdf:RDF>
      <cc:Work
         rdf:about="">
        <dc:format>image/svg+xml</dc:format>
        <dc:type
           rdf:resource="http://purl.org/dc/dcmitype/StillImage" />
        <dc:title></dc:title>
      </cc:Work>
    </rdf:RDF>
  </metadata>
  <g
     inkscape:label="Ebene 1"
     inkscape:groupmode="layer"
     id="layer1"
     transform="translate(0,-1022.3622)">
    <rect
       style="fill:#000000;fill-opacity:1;stroke:none;filter:url(#filter3803)"
       id="rect3844"
       width="61.594452"
       height="62.628124"
       x="32.48016"
       y="-121.2825"
       transform="matrix(0,0.4013345,-0.4013345,0,-21.281154,1012.0871)"
       rx="15.678588"
       ry="16.312443" />
    <rect
       style="fill:#0000e7;fill-opacity:1;stroke:none"
       id="rect3846"
       width="25.22674"
       height="24.653404"
       x="2.2256095"
       y="1025.147"
       rx="6.4213524"
       ry="6.4213524" />
    <path
       style="fill:#ffffff;fill-opacity:1;stroke:none;opacity:0.45"
       d="m 12.577664,1029.9914 c -0.08453,0 -0.153189,0.082 -0.153189,0.1848 l 0,5.014 -5.0140325,0 c -0.1029823,0 -0.1847343,0.068 -0.1847343,0.1532 l 0,4.7798 c 0,0.085 0.081752,0.1532 0.1847343,0.1532 l 5.0140325,0 0,5.0096 c 0,0.1023 0.06867,0.1847 0.153189,0.1847 l 4.779814,0 c 0.08453,0 0.153149,-0.082 0.153149,-0.1847 l 0,-5.0096 5.009577,0 c 0.102905,0 0.184734,-0.068 0.184734,-0.1532 l 0,-4.7798 c 0,-0.085 -0.08183,-0.1532 -0.184734,-0.1532 l -5.009577,0 0,-5.014 c 0,-0.1024 -0.06863,-0.1848 -0.153149,-0.1848 l -4.779814,0 z"
       id="rect3821" />
    <rect
       ry="6.5467463"
       rx="6.2923584"
       transform="matrix(0,1,-1,0,0,0)"
       y="-27.393721"
       x="1025.0796"
       height="25.134827"
       width="24.719978"
       id="rect3850"
       style="opacity:0.42816904;fill:url(#linearGradient3854);fill-opacity:1;stroke:none" />
    <path
       style="fill:url(#linearGradient3856);fill-opacity:1;stroke:none"
       d="m 27.39369,1030.9498 c -0.335075,5.3396 1.156565,2.8756 -3.895072,2.868 -5.604555,0.048 -10.227528,5.2162 -15.9113475,4.3 -6.2989449,-1.4265 -5.3898821,-1.961 -5.400076,-5.906 -0.0012,-0.517 0.071678,-1.6921 0.071678,-1.6921 0.2866732,-2.1897 2.4539999,-5.4043 6.0808998,-5.4043 l 12.5071887,-0.035 c 3.6269,0 6.367573,2.713 6.546729,5.8703 z"
       id="path3852"
       sodipodi:nodetypes="cccscccc" />
  </g>
</svg>
