<?xml version="1.0" encoding="UTF-8" standalone="no"?>
<!-- Created with Inkscape (http://www.inkscape.org/) -->

<svg
   xmlns:dc="http://purl.org/dc/elements/1.1/"
   xmlns:cc="http://creativecommons.org/ns#"
   xmlns:rdf="http://www.w3.org/1999/02/22-rdf-syntax-ns#"
   xmlns:svg="http://www.w3.org/2000/svg"
   xmlns="http://www.w3.org/2000/svg"
   xmlns:xlink="http://www.w3.org/1999/xlink"
   xmlns:sodipodi="http://sodipodi.sourceforge.net/DTD/sodipodi-0.dtd"
   xmlns:inkscape="http://www.inkscape.org/namespaces/inkscape"
   width="50"
   height="50"
   id="svg8090"
   version="1.1"
   inkscape:version="0.47 r22583"
   sodipodi:docname="button_repeat_inactive.svg">
  <defs
     id="defs8092">
    <inkscape:perspective
       sodipodi:type="inkscape:persp3d"
       inkscape:vp_x="0 : 526.18109 : 1"
       inkscape:vp_y="0 : 1000 : 0"
       inkscape:vp_z="744.09448 : 526.18109 : 1"
       inkscape:persp3d-origin="372.04724 : 350.78739 : 1"
       id="perspective8098" />
    <inkscape:perspective
       id="perspective8071"
       inkscape:persp3d-origin="0.5 : 0.33333333 : 1"
       inkscape:vp_z="1 : 0.5 : 1"
       inkscape:vp_y="0 : 1000 : 0"
       inkscape:vp_x="0 : 0.5 : 1"
       sodipodi:type="inkscape:persp3d" />
    <linearGradient
       inkscape:collect="always"
       xlink:href="#linearGradient3611"
       id="linearGradient3703"
       gradientUnits="userSpaceOnUse"
       gradientTransform="matrix(0,0.66108799,-0.66108799,0,-34.515821,989.34647)"
       x1="23.998358"
       y1="-67.392754"
       x2="59.22863"
       y2="-76.212364" />
    <linearGradient
       id="linearGradient3611">
      <stop
         style="stop-color:#ffffff;stop-opacity:1;"
         offset="0"
         id="stop3613" />
      <stop
         style="stop-color:#ffffff;stop-opacity:0;"
         offset="1"
         id="stop3615" />
    </linearGradient>
    <linearGradient
       inkscape:collect="always"
       xlink:href="#linearGradient3600"
       id="linearGradient3701"
       gradientUnits="userSpaceOnUse"
       gradientTransform="matrix(0.64780788,0,0,0.67399752,968.90918,-82.251015)"
       x1="50.06683"
       y1="84.999985"
       x2="121.42857"
       y2="85" />
    <linearGradient
       id="linearGradient3600">
      <stop
         style="stop-color:#000000;stop-opacity:0.44303799;"
         offset="0"
         id="stop3602" />
      <stop
         style="stop-color:#000000;stop-opacity:0;"
         offset="1"
         id="stop3604" />
    </linearGradient>
    <filter
       color-interpolation-filters="sRGB"
       inkscape:collect="always"
       id="filter3803">
      <feGaussianBlur
         inkscape:collect="always"
         stdDeviation="2.0840957"
         id="feGaussianBlur3805" />
    </filter>
  </defs>
  <sodipodi:namedview
     id="base"
     pagecolor="#ffffff"
     bordercolor="#666666"
     borderopacity="1.0"
     inkscape:pageopacity="0.0"
     inkscape:pageshadow="2"
     inkscape:zoom="7.9195959"
     inkscape:cx="48.267573"
     inkscape:cy="9.8729644"
     inkscape:document-units="px"
     inkscape:current-layer="layer1"
     showgrid="false"
     inkscape:window-width="1920"
     inkscape:window-height="1125"
     inkscape:window-x="0"
     inkscape:window-y="24"
     inkscape:window-maximized="1" />
  <metadata
     id="metadata8095">
    <rdf:RDF>
      <cc:Work
         rdf:about="">
        <dc:format>image/svg+xml</dc:format>
        <dc:type
           rdf:resource="http://purl.org/dc/dcmitype/StillImage" />
        <dc:title></dc:title>
      </cc:Work>
    </rdf:RDF>
  </metadata>
  <g
     inkscape:label="Ebene 1"
     inkscape:groupmode="layer"
     id="layer1"
     transform="translate(0,-1002.3622)">
    <rect
       style="fill:#000000;fill-opacity:1;stroke:none;filter:url(#filter3803)"
       id="rect3685"
       width="61.594452"
       height="62.628124"
       x="32.48016"
       y="-121.2825"
       transform="matrix(0,0.66108799,-0.66108799,0,-34.515821,985.45077)"
       rx="15.678588"
       ry="16.312443" />
    <rect
       style="fill:#0000e7;fill-opacity:1;stroke:none"
       id="rect3687"
       width="41.554104"
       height="40.609692"
       x="4.2050519"
       y="1006.9632"
       rx="10.577408"
       ry="10.577408" />
    <path
       style="fill:#ffffff;fill-opacity:1;stroke:none;opacity:0.45"
       d="m 26.119566,1013.5492 c -5.828231,0 -10.786775,3.715 -12.667385,8.9107 -2.01495,0.028 -3.6122903,0.093 -3.6803361,0.1985 -0.1959928,0.3039 6.0328711,10.1545 6.4214981,10.1553 0.388627,6e-4 6.728679,-9.8277 6.536031,-10.1323 -0.06995,-0.1108 -1.789558,-0.1788 -3.939945,-0.2138 1.553213,-2.4728 4.293343,-4.1232 7.421764,-4.1232 4.843527,0 8.76561,3.9369 8.76561,8.7961 0,4.8592 -3.922083,8.7962 -8.76561,8.7962 -1.065542,0 -2.086335,-0.1932 -3.031314,-0.5422 l 0,4.8792 c 0.946619,0.2112 1.929439,0.3283 2.939687,0.3283 7.446019,0 13.484383,-6.0525 13.484383,-13.5225 0,-7.4701 -6.038364,-13.5303 -13.484383,-13.5303 z"
       id="path3672" />
    <rect
       ry="10.78396"
       rx="10.364926"
       transform="matrix(0,1,-1,0,0,0)"
       y="-45.662582"
       x="1006.8522"
       height="41.402702"
       width="40.719353"
       id="rect3697"
       style="opacity:0.42816904;fill:url(#linearGradient3701);fill-opacity:1;stroke:none" />
    <path
       style="fill:url(#linearGradient3703);fill-opacity:1;stroke:none"
       d="m 45.662583,1016.5217 c -0.551956,8.7957 1.905117,4.7367 -6.416057,4.7244 -9.231949,0.078 -16.847061,8.5922 -26.209554,7.0831 -10.3757962,-2.3499 -8.8783856,-3.2303 -8.8951376,-9.7285 -0.00198,-0.8518 0.1180505,-2.7872 0.1180505,-2.7872 0.472202,-3.607 4.0423085,-8.9023 10.0166271,-8.9023 l 20.602113,-0.059 c 5.974311,0 10.488828,4.4689 10.783958,9.6695 z"
       id="path3699"
       sodipodi:nodetypes="cccscccc" />
  </g>
</svg>
