<?xml version="1.0" encoding="UTF-8" standalone="no"?>
<!-- Created with Inkscape (http://www.inkscape.org/) -->

<svg
   xmlns:dc="http://purl.org/dc/elements/1.1/"
   xmlns:cc="http://creativecommons.org/ns#"
   xmlns:rdf="http://www.w3.org/1999/02/22-rdf-syntax-ns#"
   xmlns:svg="http://www.w3.org/2000/svg"
   xmlns="http://www.w3.org/2000/svg"
   xmlns:xlink="http://www.w3.org/1999/xlink"
   xmlns:sodipodi="http://sodipodi.sourceforge.net/DTD/sodipodi-0.dtd"
   xmlns:inkscape="http://www.inkscape.org/namespaces/inkscape"
   width="50"
   height="50"
   id="svg7464"
   version="1.1"
   inkscape:version="0.47 r22583"
   sodipodi:docname="button_nextword_inactive.svg">
  <defs
     id="defs7466">
    <inkscape:perspective
       sodipodi:type="inkscape:persp3d"
       inkscape:vp_x="0 : 526.18109 : 1"
       inkscape:vp_y="0 : 1000 : 0"
       inkscape:vp_z="744.09448 : 526.18109 : 1"
       inkscape:persp3d-origin="372.04724 : 350.78739 : 1"
       id="perspective7472" />
    <inkscape:perspective
       id="perspective7445"
       inkscape:persp3d-origin="0.5 : 0.33333333 : 1"
       inkscape:vp_z="1 : 0.5 : 1"
       inkscape:vp_y="0 : 1000 : 0"
       inkscape:vp_x="0 : 0.5 : 1"
       sodipodi:type="inkscape:persp3d" />
    <linearGradient
       inkscape:collect="always"
       xlink:href="#linearGradient3611"
       id="linearGradient3751"
       gradientUnits="userSpaceOnUse"
       gradientTransform="matrix(0,0.66108799,-0.66108799,0,-34.106376,989.5944)"
       x1="23.998358"
       y1="-67.392754"
       x2="59.22863"
       y2="-76.212364" />
    <linearGradient
       id="linearGradient3611">
      <stop
         style="stop-color:#ffffff;stop-opacity:1;"
         offset="0"
         id="stop3613" />
      <stop
         style="stop-color:#ffffff;stop-opacity:0;"
         offset="1"
         id="stop3615" />
    </linearGradient>
    <linearGradient
       inkscape:collect="always"
       xlink:href="#linearGradient3600"
       id="linearGradient3749"
       gradientUnits="userSpaceOnUse"
       gradientTransform="matrix(0.64780788,0,0,0.67399752,969.15709,-82.660456)"
       x1="50.06683"
       y1="84.999985"
       x2="121.42857"
       y2="85" />
    <linearGradient
       id="linearGradient3600">
      <stop
         style="stop-color:#000000;stop-opacity:0.44303799;"
         offset="0"
         id="stop3602" />
      <stop
         style="stop-color:#000000;stop-opacity:0;"
         offset="1"
         id="stop3604" />
    </linearGradient>
    <filter
       color-interpolation-filters="sRGB"
       inkscape:collect="always"
       id="filter3803">
      <feGaussianBlur
         inkscape:collect="always"
         stdDeviation="2.0840957"
         id="feGaussianBlur3805" />
    </filter>
  </defs>
  <sodipodi:namedview
     id="base"
     pagecolor="#ffffff"
     bordercolor="#666666"
     borderopacity="1.0"
     inkscape:pageopacity="0.0"
     inkscape:pageshadow="2"
     inkscape:zoom="5.6"
     inkscape:cx="62.5"
     inkscape:cy="25.025253"
     inkscape:document-units="px"
     inkscape:current-layer="layer1"
     showgrid="false"
     inkscape:window-width="1920"
     inkscape:window-height="1125"
     inkscape:window-x="0"
     inkscape:window-y="24"
     inkscape:window-maximized="1" />
  <metadata
     id="metadata7469">
    <rdf:RDF>
      <cc:Work
         rdf:about="">
        <dc:format>image/svg+xml</dc:format>
        <dc:type
           rdf:resource="http://purl.org/dc/dcmitype/StillImage" />
        <dc:title></dc:title>
      </cc:Work>
    </rdf:RDF>
  </metadata>
  <g
     inkscape:label="Ebene 1"
     inkscape:groupmode="layer"
     id="layer1"
     transform="translate(0,-1002.3622)">
    <rect
       style="fill:#000000;fill-opacity:1;stroke:none;filter:url(#filter3803)"
       id="rect3739"
       width="61.594452"
       height="62.628124"
       x="32.48016"
       y="-121.2825"
       transform="matrix(0,0.66108799,-0.66108799,0,-34.106376,985.69871)"
       rx="15.678588"
       ry="16.312443" />
    <rect
       style="fill:#0000e7;fill-opacity:1;stroke:none"
       id="rect3741"
       width="41.554104"
       height="40.609692"
       x="4.6144977"
       y="1007.211"
       rx="10.577408"
       ry="10.577408" />
    <path
       style="fill:#ffffff;fill-opacity:1;stroke:none;opacity:0.45"
       d="m 16.382982,1017.5487 c -0.366242,0 -0.661087,0.2949 -0.661087,0.6611 l 0,18.2833 c 0,0.3662 0.294845,0.6611 0.661087,0.6611 l 18.985621,0 c 0.366243,0 0.661088,-0.2949 0.661088,-0.6611 l 0,-18.2833 c 0,-0.3662 -0.294845,-0.6611 -0.661088,-0.6611 l -18.985621,0 z m 4.813547,3.1402 c 1.129496,0 2.045241,0.9157 2.045241,2.0453 0,1.1294 -0.915745,2.0452 -2.045241,2.0452 -1.129495,0 -2.045241,-0.9158 -2.045241,-2.0452 0,-1.1296 0.915746,-2.0453 2.045241,-2.0453 z m 9.255232,0 c 1.129496,0 2.045241,0.9157 2.045241,2.0453 0,1.1294 -0.915745,2.0452 -2.045241,2.0452 -1.129495,0 -2.04524,-0.9158 -2.04524,-2.0452 0,-1.1296 0.915745,-2.0453 2.04524,-2.0453 z m -4.648274,4.545 c 1.129495,0 2.045241,0.9157 2.045241,2.0453 0,1.1294 -0.915746,2.0452 -2.045241,2.0452 -1.129496,0 -2.045241,-0.9158 -2.045241,-2.0452 0,-1.1296 0.915745,-2.0453 2.045241,-2.0453 z m -4.606958,4.7102 c 1.129496,0 2.045241,0.9158 2.045241,2.0453 0,1.1295 -0.915745,2.0452 -2.045241,2.0452 -1.129495,0 -2.045241,-0.9157 -2.045241,-2.0452 0,-1.1295 0.915746,-2.0453 2.045241,-2.0453 z m 9.255232,0 c 1.129496,0 2.045241,0.9158 2.045241,2.0453 0,1.1295 -0.915745,2.0452 -2.045241,2.0452 -1.129495,0 -2.04524,-0.9157 -2.04524,-2.0452 0,-1.1295 0.915745,-2.0453 2.04524,-2.0453 z"
       id="rect3722" />
    <rect
       ry="10.78396"
       rx="10.364926"
       transform="matrix(0,1,-1,0,0,0)"
       y="-46.072025"
       x="1007.1001"
       height="41.402702"
       width="40.719353"
       id="rect3745"
       style="opacity:0.42816904;fill:url(#linearGradient3749);fill-opacity:1;stroke:none" />
    <path
       style="fill:url(#linearGradient3751);fill-opacity:1;stroke:none"
       d="m 46.072028,1016.7696 c -0.551956,8.7957 1.905117,4.7367 -6.416057,4.7244 -8.381697,-0.012 -18.453677,8.8396 -26.209554,7.0831 -10.3757959,-2.3499 -8.8783854,-3.2303 -8.8951374,-9.7285 -0.00198,-0.8518 0.1180505,-2.7873 0.1180505,-2.7873 0.472202,-3.6069 4.0423085,-8.9022 10.0166269,-8.9022 l 20.602113,-0.059 c 5.974311,0 10.488828,4.4689 10.783958,9.6695 z"
       id="path3747"
       sodipodi:nodetypes="cssscccc" />
  </g>
</svg>
