<?xml version="1.0" encoding="UTF-8" standalone="no"?>
<!-- Created with Inkscape (http://www.inkscape.org/) -->

<svg
   xmlns:dc="http://purl.org/dc/elements/1.1/"
   xmlns:cc="http://creativecommons.org/ns#"
   xmlns:rdf="http://www.w3.org/1999/02/22-rdf-syntax-ns#"
   xmlns:svg="http://www.w3.org/2000/svg"
   xmlns="http://www.w3.org/2000/svg"
   xmlns:xlink="http://www.w3.org/1999/xlink"
   xmlns:sodipodi="http://sodipodi.sourceforge.net/DTD/sodipodi-0.dtd"
   xmlns:inkscape="http://www.inkscape.org/namespaces/inkscape"
   width="50"
   height="50"
   id="svg4233"
   version="1.1"
   inkscape:version="0.47 r22583"
   sodipodi:docname="button_save_inactive.svg">
  <defs
     id="defs4235">
    <inkscape:perspective
       sodipodi:type="inkscape:persp3d"
       inkscape:vp_x="0 : 526.18109 : 1"
       inkscape:vp_y="0 : 1000 : 0"
       inkscape:vp_z="744.09448 : 526.18109 : 1"
       inkscape:persp3d-origin="372.04724 : 350.78739 : 1"
       id="perspective4241" />
    <inkscape:perspective
       id="perspective4211"
       inkscape:persp3d-origin="0.5 : 0.33333333 : 1"
       inkscape:vp_z="1 : 0.5 : 1"
       inkscape:vp_y="0 : 1000 : 0"
       inkscape:vp_x="0 : 0.5 : 1"
       sodipodi:type="inkscape:persp3d" />
    <linearGradient
       inkscape:collect="always"
       xlink:href="#linearGradient3611"
       id="linearGradient3909"
       gradientUnits="userSpaceOnUse"
       gradientTransform="matrix(0,0.66108799,-0.66108799,0,-33.459691,988.1728)"
       x1="23.998358"
       y1="-67.392754"
       x2="59.22863"
       y2="-76.212364" />
    <linearGradient
       id="linearGradient3611">
      <stop
         style="stop-color:#ffffff;stop-opacity:1;"
         offset="0"
         id="stop3613" />
      <stop
         style="stop-color:#ffffff;stop-opacity:0;"
         offset="1"
         id="stop3615" />
    </linearGradient>
    <linearGradient
       inkscape:collect="always"
       xlink:href="#linearGradient3600"
       id="linearGradient3907"
       gradientUnits="userSpaceOnUse"
       gradientTransform="matrix(0.64780788,0,0,0.67399753,967.73556,-83.307143)"
       x1="50.06683"
       y1="84.999985"
       x2="121.42857"
       y2="85" />
    <linearGradient
       id="linearGradient3600">
      <stop
         style="stop-color:#000000;stop-opacity:0.44303799;"
         offset="0"
         id="stop3602" />
      <stop
         style="stop-color:#000000;stop-opacity:0;"
         offset="1"
         id="stop3604" />
    </linearGradient>
    <filter
       color-interpolation-filters="sRGB"
       inkscape:collect="always"
       id="filter3803">
      <feGaussianBlur
         inkscape:collect="always"
         stdDeviation="2.0840957"
         id="feGaussianBlur3805" />
    </filter>
  </defs>
  <sodipodi:namedview
     id="base"
     pagecolor="#ffffff"
     bordercolor="#666666"
     borderopacity="1.0"
     inkscape:pageopacity="0.0"
     inkscape:pageshadow="2"
     inkscape:zoom="6.4014002"
     inkscape:cx="25"
     inkscape:cy="23.666327"
     inkscape:document-units="px"
     inkscape:current-layer="layer1"
     showgrid="false"
     inkscape:window-width="1920"
     inkscape:window-height="1125"
     inkscape:window-x="0"
     inkscape:window-y="24"
     inkscape:window-maximized="1" />
  <metadata
     id="metadata4238">
    <rdf:RDF>
      <cc:Work
         rdf:about="">
        <dc:format>image/svg+xml</dc:format>
        <dc:type
           rdf:resource="http://purl.org/dc/dcmitype/StillImage" />
        <dc:title />
      </cc:Work>
    </rdf:RDF>
  </metadata>
  <g
     inkscape:label="Ebene 1"
     inkscape:groupmode="layer"
     id="layer1"
     transform="translate(-1.0720686,-1001.4938)">
    <rect
       ry="16.312443"
       rx="15.678588"
       transform="matrix(0,0.66108799,-0.66108799,0,-33.459691,984.27714)"
       y="-121.2825"
       x="32.48016"
       height="62.628124"
       width="61.594452"
       id="rect3893"
       style="fill:#000000;fill-opacity:1;stroke:none;filter:url(#filter3803)" />
    <rect
       ry="10.577409"
       rx="10.577409"
       y="1005.7894"
       x="5.2611823"
       height="40.609688"
       width="41.554104"
       id="rect3895"
       style="fill:#e3e4eb;fill-opacity:1;stroke:none" />
    <g
       id="g3888"
       transform="matrix(0.2427962,0,0,0.2427962,-110.37563,968.66211)">
      <path
         id="rect3848"
         d="m 512.28125,181.0625 c -1.662,0 -3,1.338 -3,3 l 0,106.875 c 0,1.662 1.338,3 3,3 l 16.65625,0 0,-47.3125 c 0,-2.08113 1.338,-3.78125 3,-3.78125 l 67.21875,0 c 1.662,0 3,1.70012 3,3.78125 l 0,47.3125 18.40625,0 c 1.662,0 3,-1.338 3,-3 l 0,-72.5 -33.65625,-37.375 -0.0312,0 0,40.34375 c 0,1.662 -1.338,3 -3,3 l -58.34375,0 c -1.662,0 -3,-1.338 -3,-3 l 0,-40.34375 -13.25,0 z m 94.3125,99.15625 11.875,0 0,10.34375 -11.875,0 0,-10.34375 z"
         style="fill:#ffffff;fill-opacity:1;stroke:none" />
      <path
         id="rect3856"
         d="m 539.78125,251.75 c -1.48036,0 -2.6875,1.20714 -2.6875,2.6875 l 0,36.625 c 0,1.48036 1.20714,2.6875 2.6875,2.6875 l 52.875,0 c 1.48036,0 2.65625,-1.20714 2.65625,-2.6875 l 0,-36.625 c 0,-1.48036 -1.17589,-2.6875 -2.65625,-2.6875 l -52.875,0 z m 4.28125,6.03125 44.46875,0 0,6.25 -44.46875,0 0,-6.25 z m 0,11.59375 44.46875,0 0,6.25 -44.46875,0 0,-6.25 z"
         style="fill:#ffffff;fill-opacity:1;stroke:none" />
      <path
         id="rect3883"
         d="m 535.96875,180.96875 c -1.57972,0 -2.84375,1.41106 -2.84375,3.15625 l 0,30.03125 c 0,1.74519 1.26403,3.125 2.84375,3.125 l 42.78125,0 c 1.57972,0 2.875,-1.37981 2.875,-3.125 l 0,-30.03125 c 0,-1.74519 -1.29528,-3.15625 -2.875,-3.15625 l -42.78125,0 z m 35.34375,4.53125 2.875,0 c 1.57972,0 2.875,1.41106 2.875,3.15625 l 0,17.1875 c 0,1.74519 -1.29528,3.15625 -2.875,3.15625 l -2.875,0 c -1.57972,0 -2.84375,-1.41106 -2.84375,-3.15625 l 0,-17.1875 c 0,-1.74519 1.26403,-3.15625 2.84375,-3.15625 z"
         style="fill:#ffffff;fill-opacity:1;stroke:none" />
    </g>
    <rect
       style="opacity:0.42816904;fill:url(#linearGradient3907);fill-opacity:1;stroke:none"
       id="rect3903"
       width="40.719353"
       height="41.402699"
       x="1005.6785"
       y="-46.718712"
       transform="matrix(0,1,-1,0,0,0)"
       rx="10.364926"
       ry="10.78396" />
    <path
       sodipodi:nodetypes="cccscccc"
       id="path3905"
       d="m 46.718713,1015.3479 c -0.551955,8.7957 1.905116,4.7368 -6.416057,4.7245 -9.231948,0.078 -16.847061,8.5922 -26.209555,7.0831 -10.3757955,-2.3499 -8.8783849,-3.2304 -8.8951369,-9.7285 -0.00198,-0.8518 0.1180499,-2.7873 0.1180499,-2.7873 0.4722021,-3.6069 4.0423086,-8.9022 10.016627,-8.9022 l 20.602114,-0.059 c 5.974312,0 10.488829,4.4688 10.783958,9.6694 z"
       style="fill:url(#linearGradient3909);fill-opacity:1;stroke:none" />
  </g>
</svg>
