<?xml version="1.0" encoding="UTF-8" standalone="no"?>
<!-- Created with Inkscape (http://www.inkscape.org/) -->

<svg
   xmlns:dc="http://purl.org/dc/elements/1.1/"
   xmlns:cc="http://creativecommons.org/ns#"
   xmlns:rdf="http://www.w3.org/1999/02/22-rdf-syntax-ns#"
   xmlns:svg="http://www.w3.org/2000/svg"
   xmlns="http://www.w3.org/2000/svg"
   xmlns:xlink="http://www.w3.org/1999/xlink"
   xmlns:sodipodi="http://sodipodi.sourceforge.net/DTD/sodipodi-0.dtd"
   xmlns:inkscape="http://www.inkscape.org/namespaces/inkscape"
   width="46.501007"
   height="45.839222"
   id="svg3146"
   version="1.1"
   inkscape:version="0.47 r22583"
   sodipodi:docname="button_resetpassword_active.svg">
  <defs
     id="defs3148">
    <inkscape:perspective
       sodipodi:type="inkscape:persp3d"
       inkscape:vp_x="0 : 526.18109 : 1"
       inkscape:vp_y="0 : 1000 : 0"
       inkscape:vp_z="744.09448 : 526.18109 : 1"
       inkscape:persp3d-origin="372.04724 : 350.78739 : 1"
       id="perspective3154" />
    <inkscape:perspective
       id="perspective3127"
       inkscape:persp3d-origin="0.5 : 0.33333333 : 1"
       inkscape:vp_z="1 : 0.5 : 1"
       inkscape:vp_y="0 : 1000 : 0"
       inkscape:vp_x="0 : 0.5 : 1"
       sodipodi:type="inkscape:persp3d" />
    <linearGradient
       id="linearGradient3611">
      <stop
         style="stop-color:#ffffff;stop-opacity:1;"
         offset="0"
         id="stop3613" />
      <stop
         style="stop-color:#ffffff;stop-opacity:0;"
         offset="1"
         id="stop3615" />
    </linearGradient>
    <linearGradient
       id="linearGradient3600">
      <stop
         style="stop-color:#000000;stop-opacity:0.44303799;"
         offset="0"
         id="stop3602" />
      <stop
         style="stop-color:#000000;stop-opacity:0;"
         offset="1"
         id="stop3604" />
    </linearGradient>
    <inkscape:perspective
       id="perspective2846"
       inkscape:persp3d-origin="0.5 : 0.33333333 : 1"
       inkscape:vp_z="1 : 0.5 : 1"
       inkscape:vp_y="0 : 1000 : 0"
       inkscape:vp_x="0 : 0.5 : 1"
       sodipodi:type="inkscape:persp3d" />
    <inkscape:perspective
       id="perspective4135"
       inkscape:persp3d-origin="0.5 : 0.33333333 : 1"
       inkscape:vp_z="1 : 0.5 : 1"
       inkscape:vp_y="0 : 1000 : 0"
       inkscape:vp_x="0 : 0.5 : 1"
       sodipodi:type="inkscape:persp3d" />
    <linearGradient
       inkscape:collect="always"
       xlink:href="#linearGradient3611-4"
       id="linearGradient3126"
       gradientUnits="userSpaceOnUse"
       gradientTransform="matrix(0,0.64022935,-0.64022935,0,-32.881638,991.52089)"
       x1="23.998358"
       y1="-67.392754"
       x2="59.22863"
       y2="-76.212364" />
    <linearGradient
       id="linearGradient3611-4">
      <stop
         style="stop-color:#ffffff;stop-opacity:1;"
         offset="0"
         id="stop3613-8" />
      <stop
         style="stop-color:#ffffff;stop-opacity:0;"
         offset="1"
         id="stop3615-4" />
    </linearGradient>
    <linearGradient
       inkscape:collect="always"
       xlink:href="#linearGradient3600-8"
       id="linearGradient3124"
       gradientUnits="userSpaceOnUse"
       gradientTransform="matrix(0.62736825,0,0,0.65273156,971.72839,-80.200979)"
       x1="50.06683"
       y1="84.999985"
       x2="121.42857"
       y2="85" />
    <linearGradient
       id="linearGradient3600-8">
      <stop
         style="stop-color:#000000;stop-opacity:0.44303799;"
         offset="0"
         id="stop3602-3" />
      <stop
         style="stop-color:#000000;stop-opacity:0;"
         offset="1"
         id="stop3604-5" />
    </linearGradient>
    <filter
       color-interpolation-filters="sRGB"
       inkscape:collect="always"
       id="filter3803-0">
      <feGaussianBlur
         inkscape:collect="always"
         stdDeviation="2.0840957"
         id="feGaussianBlur3805-3" />
    </filter>
    <inkscape:perspective
       id="perspective4223"
       inkscape:persp3d-origin="0.5 : 0.33333333 : 1"
       inkscape:vp_z="1 : 0.5 : 1"
       inkscape:vp_y="0 : 1000 : 0"
       inkscape:vp_x="0 : 0.5 : 1"
       sodipodi:type="inkscape:persp3d" />
    <linearGradient
       inkscape:collect="always"
       xlink:href="#linearGradient3611-9"
       id="linearGradient3122"
       gradientUnits="userSpaceOnUse"
       gradientTransform="matrix(0,0.64022935,-0.64022935,0,-32.629099,991.26834)"
       x1="23.998358"
       y1="-67.392754"
       x2="59.22863"
       y2="-76.212364" />
    <linearGradient
       id="linearGradient3611-9">
      <stop
         style="stop-color:#ffffff;stop-opacity:1;"
         offset="0"
         id="stop3613-6" />
      <stop
         style="stop-color:#ffffff;stop-opacity:0;"
         offset="1"
         id="stop3615-5" />
    </linearGradient>
    <linearGradient
       inkscape:collect="always"
       xlink:href="#linearGradient3600-2"
       id="linearGradient3120"
       gradientUnits="userSpaceOnUse"
       gradientTransform="matrix(0.62736825,0,0,0.65273156,971.47594,-80.453523)"
       x1="50.06683"
       y1="84.999985"
       x2="121.42857"
       y2="85" />
    <linearGradient
       id="linearGradient3600-2">
      <stop
         style="stop-color:#000000;stop-opacity:0.44303799;"
         offset="0"
         id="stop3602-2" />
      <stop
         style="stop-color:#000000;stop-opacity:0;"
         offset="1"
         id="stop3604-4" />
    </linearGradient>
    <filter
       color-interpolation-filters="sRGB"
       inkscape:collect="always"
       id="filter3803">
      <feGaussianBlur
         inkscape:collect="always"
         stdDeviation="2.0840957"
         id="feGaussianBlur3805" />
    </filter>
  </defs>
  <sodipodi:namedview
     id="base"
     pagecolor="#ffffff"
     bordercolor="#666666"
     borderopacity="1.0"
     inkscape:pageopacity="0.0"
     inkscape:pageshadow="2"
     inkscape:zoom="3.959798"
     inkscape:cx="112.59802"
     inkscape:cy="2.8159036"
     inkscape:document-units="px"
     inkscape:current-layer="layer1"
     showgrid="false"
     inkscape:window-width="1920"
     inkscape:window-height="1125"
     inkscape:window-x="0"
     inkscape:window-y="24"
     inkscape:window-maximized="1" />
  <metadata
     id="metadata3151">
    <rdf:RDF>
      <cc:Work
         rdf:about="">
        <dc:format>image/svg+xml</dc:format>
        <dc:type
           rdf:resource="http://purl.org/dc/dcmitype/StillImage" />
        <dc:title></dc:title>
      </cc:Work>
    </rdf:RDF>
  </metadata>
  <g
     inkscape:label="Ebene 1"
     inkscape:groupmode="layer"
     id="layer1"
     transform="translate(-1.4186979,-1004.6443)">
    <rect
       ry="16.312443"
       rx="15.678588"
       transform="matrix(0,0.64022935,-0.64022935,0,-32.629099,987.49564)"
       y="-121.2825"
       x="32.48016"
       height="62.628124"
       width="61.594452"
       id="rect3100"
       style="fill:#000000;fill-opacity:1;stroke:none;filter:url(#filter3803)" />
    <rect
       ry="10.24367"
       rx="10.24367"
       y="1008.3292"
       x="4.8700314"
       height="39.328373"
       width="40.242989"
       id="rect3102"
       style="fill:#e3e4eb;fill-opacity:1;stroke:none" />
    <path
       style="fill:#ffffff;fill-opacity:1;stroke:none"
       d="m 28.37695,1012.9109 c -0.327477,-0.1107 -8.003062,7.9756 -7.912917,8.3362 0.09046,0.3604 10.694073,3.9314 10.93147,3.6814 0.08624,-0.091 -0.26275,-1.6933 -0.733511,-3.6955 2.656504,0.8615 4.83943,3.0091 5.571596,5.91 1.133526,4.4914 -1.601597,9.0468 -6.107596,10.184 -0.572749,0.1445 -1.153117,0.2295 -1.720808,0.2539 l 0,4.4149 c 0.944914,-0.024 1.90814,-0.1539 2.863426,-0.395 6.926963,-1.7482 11.122453,-8.7661 9.379873,-15.6708 -1.36401,-5.4045 -5.969564,-9.12 -11.227703,-9.648 -0.497202,-1.8619 -0.930061,-3.3327 -1.04383,-3.3711 z"
       id="path3073" />
    <path
       style="fill:#ffffff;fill-opacity:1;stroke:none"
       d="m 15.426196,1023.677 c -1.296913,0 -2.347401,1.0505 -2.347401,2.3475 l 0,5.2544 -0.621855,0 0,9.6073 9.296386,0 0,-9.6073 -0.699578,0 0,-5.2544 c 0,-1.297 -1.034931,-2.3475 -2.331844,-2.3475 l -3.295708,0 z m 0.497458,1.197 2.238626,0 c 0.878395,0 1.585656,0.7073 1.585656,1.5857 l 0,4.8192 -5.409938,0 0,-4.8192 c 0,-0.8784 0.707261,-1.5857 1.585656,-1.5857 z m 1.103755,8.3792 c 0.754511,0 1.352485,0.625 1.352485,1.3991 0,0.4111 -0.160506,0.7852 -0.435292,1.0416 l 0,2.907 c 0,0.3112 -0.264031,0.5597 -0.575182,0.5597 l -0.715136,0 c -0.311152,0 -0.559625,-0.2485 -0.559625,-0.5597 l 0,-2.907 c -0.274786,-0.2564 -0.435292,-0.6305 -0.435292,-1.0416 0,-0.7741 0.613532,-1.3991 1.368042,-1.3991 z"
       id="rect3078" />
    <rect
       style="opacity:0.42816904;fill:url(#linearGradient3120);fill-opacity:1;stroke:none"
       id="rect3112"
       width="39.434578"
       height="40.096363"
       x="1008.2218"
       y="-45.019493"
       transform="matrix(0,1,-1,0,0,0)"
       rx="10.037892"
       ry="10.443705" />
    <path
       sodipodi:nodetypes="cssscccc"
       id="path3114"
       d="m 45.019523,1017.5861 c -0.53453,8.5181 1.84501,4.5873 -6.21362,4.5754 -8.117277,-0.012 -17.87143,8.5607 -25.382601,6.8596 -10.0484004,-2.2757 -8.5982814,-3.1285 -8.6144784,-9.4216 0,-0.8249 0.114345,-2.6993 0.114345,-2.6993 0.457251,-3.4931 3.914747,-8.6213 9.7005634,-8.6213 l 19.952046,-0.057 c 5.785815,0 10.157945,4.3279 10.443745,9.3644 z"
       style="fill:url(#linearGradient3122);fill-opacity:1;stroke:none" />
  </g>
</svg>
