<?xml version="1.0" encoding="UTF-8" standalone="no"?>
<!-- Created with Inkscape (http://www.inkscape.org/) -->

<svg
   xmlns:dc="http://purl.org/dc/elements/1.1/"
   xmlns:cc="http://creativecommons.org/ns#"
   xmlns:rdf="http://www.w3.org/1999/02/22-rdf-syntax-ns#"
   xmlns:svg="http://www.w3.org/2000/svg"
   xmlns="http://www.w3.org/2000/svg"
   xmlns:sodipodi="http://sodipodi.sourceforge.net/DTD/sodipodi-0.dtd"
   xmlns:inkscape="http://www.inkscape.org/namespaces/inkscape"
   id="svg2"
   version="1.1"
   inkscape:version="0.48.1 r9760"
   width="104.8125"
   height="36.675"
   xml:space="preserve"
   sodipodi:docname="dfg_logo_blau_4c.eps"
   inkscape:export-filename="/home/fabi/workspace/GWAP/view/common/img/logo-dfg.png"
   inkscape:export-xdpi="120.22"
   inkscape:export-ydpi="120.22"><metadata
     id="metadata8"><rdf:RDF><cc:Work
         rdf:about=""><dc:format>image/svg+xml</dc:format><dc:type
           rdf:resource="http://purl.org/dc/dcmitype/StillImage" /><dc:title></dc:title></cc:Work></rdf:RDF></metadata><defs
     id="defs6" /><sodipodi:namedview
     pagecolor="#ffffff"
     bordercolor="#666666"
     borderopacity="1"
     objecttolerance="10"
     gridtolerance="10"
     guidetolerance="10"
     inkscape:pageopacity="0"
     inkscape:pageshadow="2"
     inkscape:window-width="640"
     inkscape:window-height="480"
     id="namedview4"
     showgrid="false"
     inkscape:zoom="4.3983304"
     inkscape:cx="52.40625"
     inkscape:cy="18.3375"
     inkscape:window-x="331"
     inkscape:window-y="313"
     inkscape:window-maximized="0"
     inkscape:current-layer="g10" /><g
     id="g10"
     inkscape:groupmode="layer"
     inkscape:label="ink_ext_XXXXXX"
     transform="matrix(1.25,0,0,-1.25,0,36.675)"><g
       id="g12"
       transform="scale(0.1,0.1)"><path
         d="m 0,4.97266 150.48,0 c 39.79,0 74.36,8.54294 98.872,30.15624 24.511,21.6016 39.539,56.5195 39.57,110.7501 -0.02,58.242 -14.043,93.613 -37.383,114.562 -23.34,20.965 -56.758,28.008 -96.637,27.997 l 0,0.011 -154.902,0 0,-61.222 131.199,0 c 19.879,0.109 33.469,-6.942 41.149,-20.586 7.703,-13.536 10.011,-32.793 10.039,-57.864 -0.028,-24.226 -2.137,-43.269 -9.668,-56.8122 -7.52,-13.625 -21.02,-20.9179 -41.117,-20.8046 l -29.891,0 0,100.3438 L 0,171.504 0,4.97266"
         style="fill:#2056ae;fill-opacity:1;fill-rule:nonzero;stroke:none"
         id="path14" /><path
         d="m 311.012,4.97266 101.707,0 0,102.83234 126.715,0 0,63.699 -126.715,0 0,55.723 126.715,0 0,61.222 -228.422,0 0,-283.47634"
         style="fill:#2056ae;fill-opacity:1;fill-rule:nonzero;stroke:none"
         id="path16" /><path
         d="M 609.473,257.668 C 579.426,233.898 560.43,198.555 560.391,150.852 560.43,99.9336 578.711,62.5 608.34,37.5 637.988,12.5117 679.258,0 725.332,0 c 43.152,0.0117188 77.246,4.35547 113.125,15 l 0,130.801 -86.426,0 0,-76.1838 -1.914,-0.7383 c -7.265,-2.7734 -16.328,-2.6562 -23.984,-2.6953 -22.285,-0.0625 -38.164,9.2539 -47.91,23.6992 -9.766,14.4262 -13.692,33.6402 -13.711,53.9262 -0.02,26.964 9.14,48.086 25.371,62.207 16.222,14.132 39.172,21.211 66.387,21.211 27.832,0 49.765,-6.258 65.371,-14.481 l 0,70.527 c -25.703,6.278 -45.262,10.125 -96.309,10.145 l -0.02,0 c -44.453,0 -85.781,-12.012 -115.839,-35.75"
         style="fill:#2056ae;fill-opacity:1;fill-rule:nonzero;stroke:none"
         id="path18" /></g></g></svg>